# xmcd CD database file
#
# Track frame offsets:
#	150
#	15567
#	26239
#	37620
#	44343
#	61659
#	73653
#	83855
#	97252
#	109294
#	120504
#	142261
#	157507
#	171695
#	185018
#	198063
#	209962
#	219037
#
# Disc length: 3207 seconds
#
# Revision: 0
# Processed by: cddbd v1.5.2PL0 Copyright (c) Steve Scherf et al.
# Submitted via: CDex 1.51
#
DISCID=010c8512
DTITLE=Nitty Gritty Dirt Band - An Introduction to The Nitty Gritty Dirt Band
DYEAR=2006
DGENRE=Country
TTITLE0=01 Mr. Bojangles
TTITLE1=02 Buy For Me The Rain
TTITLE2=03 Shadow Dream Song
TTITLE3=04 Euphoria
TTITLE4=05 (All I Have To Do Is) Dream
TTITLE5=06 Song For Jutta
TTITLE6=07 It's Raining Here In Long Beach
TTITLE7=08 Dismal Swamp
TTITLE8=09 Truly Right
TTITLE9=10 Tide Of Love
TTITLE10=11 Will The Circle Be Unbroken
TTITLE11=12 Mournin' Blues
TTITLE12=13 These Days
TTITLE13=14 Some Of Shelly's Blues
TTITLE14=15 Rave On
TTITLE15=16 The House At Pooh Corner
TTITLE16=17 Livin' Without You
TTITLE17=18 Tennessee Stud
EXTD=YEAR: 2006
EXTT0=
EXTT1=
EXTT2=
EXTT3=
EXTT4=
EXTT5=
EXTT6=
EXTT7=
EXTT8=
EXTT9=
EXTT10=
EXTT11=
EXTT12=
EXTT13=
EXTT14=
EXTT15=
EXTT16=
EXTT17=
PLAYORDER=
